<svg xmlns:inkscape="http://www.inkscape.org/namespaces/inkscape" xmlns:sodipodi="http://sodipodi.sourceforge.net/DTD/sodipodi-0.dtd" xmlns="http://www.w3.org/2000/svg" xmlns:svg="http://www.w3.org/2000/svg" xmlns:rdf="http://www.w3.org/1999/02/22-rdf-syntax-ns#" xmlns:cc="http://creativecommons.org/ns#" xmlns:dc="http://purl.org/dc/elements/1.1/" viewBox="0.05 0.04 247.38 36.33" version="1.1" id="svg8" inkscape:version="1.2.2 (732a01da63, 2022-12-09)" sodipodi:docname="Yahoo news logo.svg">
  <defs id="defs2"/>
  <sodipodi:namedview id="base" pagecolor="#ffffff" bordercolor="#666666" borderopacity="1.0" inkscape:pageopacity="0.0" inkscape:pageshadow="2" inkscape:zoom="0.98994949" inkscape:cx="473.76154" inkscape:cy="-12.121831" inkscape:document-units="px" inkscape:current-layer="layer1" showgrid="false" units="px" inkscape:window-width="1920" inkscape:window-height="1051" inkscape:window-x="-9" inkscape:window-y="-9" inkscape:window-maximized="1" fit-margin-top="0" fit-margin-left="0" fit-margin-right="0" fit-margin-bottom="0" inkscape:showpageshadow="2" inkscape:pagecheckerboard="0" inkscape:deskcolor="#d1d1d1"/>
  <metadata id="metadata5">
    <rdf:RDF>
      <cc:Work rdf:about="">
        <dc:format>image/svg+xml</dc:format>
        <dc:type rdf:resource="http://purl.org/dc/dcmitype/StillImage"/>
      </cc:Work>
    </rdf:RDF>
  </metadata>
  <g inkscape:label="Layer 1" inkscape:groupmode="layer" id="layer1" transform="translate(260.95542,41.213839)">
    <path style="opacity:1;fill:#5f01d1;fill-opacity:1;stroke:none;stroke-width:0.0443089;stroke-linecap:butt;stroke-linejoin:round;stroke-miterlimit:2.6131;stroke-dasharray:none;stroke-opacity:1" d="m -260.90818,-32.324007 h 8.14033 l 4.74001,11.61173 4.80154,-11.61173 h 7.92595 l -11.93472,27.4887386 h -7.97617 l 3.26693,-7.2840826 z" id="path1139" inkscape:connector-curvature="0" sodipodi:nodetypes="ccccccccc"/>
    <path inkscape:connector-curvature="0" style="opacity:1;fill:#5f01d1;fill-opacity:1;stroke:none;stroke-width:0.0443089;stroke-linecap:butt;stroke-linejoin:round;stroke-miterlimit:2.6131;stroke-dasharray:none;stroke-opacity:1" d="m -227.04359,-32.786262 c -6.11622,0 -9.98271,5.252284 -9.98271,10.482724 0,5.885782 4.23913,10.552155 9.86668,10.552155 4.19793,0 5.78076,-2.449013 5.78076,-2.449013 v 1.907737 h 7.09993 v -20.031227 h -7.09993 v 1.821021 c 0,0 -1.76593,-2.283397 -5.66473,-2.283397 z m 1.51019,6.437249 c 2.82207,0 4.27836,2.138173 4.27836,4.067484 0,2.077507 -1.5602,4.11627 -4.27836,4.11627 -2.2528,0 -4.28861,-1.762817 -4.28861,-4.027855 0,-2.297087 1.63752,-4.155899 4.28861,-4.155899 z" id="path1141"/>
    <path style="opacity:1;fill:#5f01d1;fill-opacity:1;stroke:none;stroke-width:0.0443089;stroke-linecap:butt;stroke-linejoin:round;stroke-miterlimit:2.6131;stroke-dasharray:none;stroke-opacity:1" d="m -211.83375,-12.292781 v -28.876185 h 7.42609 v 10.735455 c 0,0 1.76388,-2.350272 5.45809,-2.350272 4.51877,0 7.16628,3.223842 7.16628,7.830573 v 12.660429 h -7.37176 v -10.926123 c 0,-1.559019 -0.77555,-3.06509 -2.53233,-3.06509 -1.78829,0 -2.72028,1.528894 -2.72028,3.06509 v 10.926123 z" id="path1145" inkscape:connector-curvature="0" sodipodi:nodetypes="ccccccccccccc"/>
    <path inkscape:connector-curvature="0" style="opacity:1;fill:#5f01d1;fill-opacity:1;stroke:none;stroke-width:0.0443089;stroke-linecap:butt;stroke-linejoin:round;stroke-miterlimit:2.6131;stroke-dasharray:none;stroke-opacity:1" d="m -179.12206,-32.783891 c -7.00421,0 -11.17488,5.099775 -11.17488,10.563687 0,6.218021 5.04974,10.468821 11.20141,10.468821 5.96247,0 11.17983,-4.057892 11.17983,-10.364502 0,-6.900577 -5.46273,-10.668006 -11.20636,-10.668006 z m 0.0669,6.493827 c 2.47413,0 4.18602,1.973154 4.18602,4.0773 0,1.794676 -1.59517,4.008223 -4.18602,4.008223 -2.374,0 -4.1556,-1.823415 -4.1556,-4.027855 0,-2.123588 1.48123,-4.057668 4.1556,-4.057668 z" id="path1147"/>
    <path id="path1153" d="m -155.54419,-32.783891 c -7.0042,0 -11.17487,5.099775 -11.17487,10.563687 0,6.218021 5.04973,10.468821 11.2014,10.468821 5.96247,0 11.17984,-4.057892 11.17984,-10.364502 0,-6.900577 -5.46273,-10.668006 -11.20637,-10.668006 z m 0.0669,6.493827 c 2.47413,0 4.18601,1.973154 4.18601,4.0773 0,1.794676 -1.59517,4.008223 -4.18601,4.008223 -2.374,0 -4.15561,-1.823415 -4.15561,-4.027855 0,-2.123588 1.48123,-4.057668 4.15561,-4.057668 z" style="opacity:1;fill:#5f01d1;fill-opacity:1;stroke:none;stroke-width:0.0443089;stroke-linecap:butt;stroke-linejoin:round;stroke-miterlimit:2.6131;stroke-dasharray:none;stroke-opacity:1" inkscape:connector-curvature="0"/>
    <ellipse style="opacity:1;fill:#5f01d1;fill-opacity:1;stroke:none;stroke-width:0.044679;stroke-linecap:butt;stroke-linejoin:round;stroke-miterlimit:2.6131;stroke-dasharray:none;stroke-opacity:1" id="path1155" cx="-138.4781" cy="-16.589245" rx="4.9312072" ry="4.7217398"/>
    <path style="opacity:1;fill:#5f01d1;fill-opacity:1;stroke:none;stroke-width:0.0443089;stroke-linecap:butt;stroke-linejoin:round;stroke-miterlimit:2.6131;stroke-dasharray:none;stroke-opacity:1" d="m -131.92655,-23.045473 h -8.87745 l 7.87889,-18.123493 h 8.84432 z" id="path1157" inkscape:connector-curvature="0" sodipodi:nodetypes="ccccc"/>
    <g transform="matrix(0.02208376,0,0,-0.02173279,-121.71176,-12.385937)" fill="#000000" stroke="none" id="g4900">
      <path d="m 561,1104 c -57,-21 -87,-39 -133,-83 l -38,-35 v 52 52 H 195 0 V 560 30 h 195 195 v 303 c 0,168 4,318 10,338 29,105 176,132 232,41 23,-36 23,-42 26,-359 l 3,-323 h 188 c 187,0 189,0 195,22 9,36 7,624 -4,721 -15,150 -84,258 -198,314 -71,35 -210,43 -281,17 z" id="path4892" style="fill:#1a1a1a"/>
      <path d="m 1570,1104 c -183,-48 -326,-180 -388,-358 -46,-132 -32,-338 32,-464 32,-64 109,-148 173,-188 200,-128 511,-120 706,19 55,40 127,123 127,148 0,4 -24,17 -52,27 -29,11 -95,36 -146,56 -52,20 -102,36 -112,36 -10,0 -32,-11 -48,-25 -16,-13 -42,-29 -58,-35 -41,-16 -138,-14 -172,4 -50,26 -116,115 -99,133 3,3 164,6 359,6 194,1 359,6 367,11 17,11 9,162 -14,250 -49,189 -192,331 -381,380 -76,20 -220,20 -294,0 z m 230,-296 c 44,-23 73,-55 84,-94 6,-18 1,-22 -31,-28 -49,-8 -174,-8 -252,0 -71,8 -78,22 -34,75 57,67 154,87 233,47 z" id="path4894" style="fill:#1a1a1a"/>
      <path d="m 4283,1101 c -164,-45 -249,-120 -289,-257 -43,-149 25,-294 171,-360 27,-13 115,-41 194,-62 154,-43 174,-55 151,-92 -7,-12 -31,-15 -112,-14 -94,0 -112,4 -203,38 -55,21 -107,40 -116,42 -11,4 -31,-27 -77,-123 -34,-71 -62,-134 -62,-140 0,-21 174,-89 295,-114 79,-17 276,-16 345,0 189,46 303,161 317,320 9,92 -17,165 -81,227 -65,63 -124,91 -307,147 -113,34 -145,47 -148,62 -11,59 114,61 283,5 65,-22 121,-39 123,-37 5,5 113,257 113,263 0,10 -107,53 -195,79 -124,37 -298,44 -402,16 z" id="path4896" style="fill:#1a1a1a"/>
      <path d="m 2240,1081 c 0,-17 350,-1035 358,-1043 5,-5 80,-7 168,-6 l 159,3 90,273 c 49,149 92,272 95,272 3,0 46,-123 96,-273 l 91,-272 164,-3 165,-2 33,92 c 18,51 97,282 176,513 79,231 146,428 150,438 7,16 -6,17 -189,17 -108,0 -196,-1 -196,-3 0,-26 -163,-543 -167,-531 -1,5 -40,126 -87,269 l -84,260 -146,3 -145,3 -87,-267 c -47,-146 -89,-262 -94,-258 -5,7 -126,395 -157,507 -5,15 -23,17 -199,17 -115,0 -194,-4 -194,-9 z" id="path4898" style="fill:#1a1a1a"/>
    </g>
  </g>
</svg>