<svg xmlns="http://www.w3.org/2000/svg" width="173" height="37" viewBox="0 0 173 37"><g><g><path fill="#fff" d="M163.508 36.869h8.971v-8.971h-8.971zM11.904 28.107v-6.89h7.145c2.7 0 3.974 1.2 3.974 3.354-.037 2.843-2.078 3.536-4.484 3.536zm-.036-19.321h6.015c2.333 0 3.864.656 3.864 2.515 0 2.37-1.495 3.062-3.864 3.062h-6.015zM153.461 0l-5.942 22.347h-.109L141.357 0H87.768l-5.286 21.691h-.109L77.123 0H33.63v21.691a9.001 9.001 0 0 0-5.687-5.213c2.734-1.495 4.557-3.5 4.557-7.218C32.501 5.468 30.423 0 20.73 0H.53v36.893h20.925c5.25 0 10.39-2.552 12.176-7.4v7.4h11.375V22.821h10.39v-8.458h-10.39V8.786h15.967v28.107H71.73v-23.66h.109l6.416 23.66h8.455l6.42-23.66h.109v23.66h10.751V9.442h9.009v27.451h11.37V9.442h8.348l8.166 27.451h12.723L165.126 0z"/></g></g></svg>