<svg xmlns="http://www.w3.org/2000/svg" xmlns:xlink="http://www.w3.org/1999/xlink" version="1.1" id="Calque_1" x="0px" y="0px" viewBox="0 0 468.1 75.2" style="enable-background:new 0 0 468.1 75.2;" xml:space="preserve">
<style type="text/css">
	.st0{fill:#E2000B;}
</style>
<g>
	<g>
		<g>
			<g>
				<path class="st0" d="M284.5,57.9h3.2l-3,17.1h-3.2L284.5,57.9z"/>
				<path class="st0" d="M288.9,62h3.2l-2.3,13h-3.2L288.9,62z M289.8,57.1c0.4-0.4,0.8-0.6,1.3-0.6s1,0.2,1.4,0.6      c0.4,0.4,0.6,0.9,0.6,1.5s-0.2,1.1-0.6,1.5s-0.8,0.6-1.4,0.6c-0.5,0-1-0.2-1.3-0.6s-0.6-0.9-0.6-1.5      C289.2,58,289.4,57.6,289.8,57.1z"/>
				<path class="st0" d="M294.8,57.9h3.2l-1.3,6c0.8-1.4,2-2.1,3.6-2.1c1.4,0,2.6,0.6,3.5,1.7s1.4,2.6,1.4,4.2c0,2-0.6,3.8-1.7,5.3      s-2.6,2.3-4.5,2.3c-1.8,0-3-0.7-3.7-2.1L295,75h-3.2L294.8,57.9z M297,66.2c-0.6,0.7-0.8,1.6-0.8,2.6c0,0.8,0.2,1.6,0.7,2.2      s1.1,0.9,2,0.9s1.6-0.3,2.2-1.1c0.6-0.7,0.9-1.6,0.9-2.7c0-0.9-0.3-1.6-0.8-2.2s-1.1-0.8-1.8-0.8      C298.4,65.1,297.6,65.5,297,66.2z"/>
				<path class="st0" d="M307.7,63.8c1.2-1.4,2.7-2.1,4.6-2.1c1.8,0,3.2,0.6,4.2,1.7c1,1.1,1.5,2.7,1.5,4.5c0,0.7-0.1,1.2-0.2,1.7      h-8.7c0.1,0.6,0.3,1.1,0.7,1.5c0.4,0.4,0.8,0.7,1.2,0.8s0.8,0.2,1.2,0.2c1,0,1.9-0.3,2.5-0.9l1.9,2.2c-1.3,1.1-2.8,1.7-4.6,1.7      c-1.8,0-3.3-0.6-4.4-1.8c-1.2-1.2-1.7-2.6-1.7-4.4C305.9,67,306.5,65.2,307.7,63.8z M315,67.1c-0.1-0.7-0.3-1.3-0.8-1.8      c-0.5-0.4-1.1-0.7-1.8-0.7c-0.6,0-1.3,0.2-1.8,0.7s-1,1-1.2,1.8H315z M314.2,56.1h3.2l-3.7,4.1h-2.6L314.2,56.1z"/>
				<path class="st0" d="M320.6,62h3.2l-0.4,2.4c0.3-0.7,0.9-1.3,1.7-1.8c0.8-0.6,1.8-0.8,3-0.8l-0.7,3.8c-2.8,0-4.5,1.5-5,4.5      l-0.9,5h-3.2L320.6,62z"/>
				<path class="st0" d="M329.3,63.8c1.2-1.4,2.7-2.1,4.6-2.1c1.8,0,3.2,0.6,4.2,1.7c1,1.1,1.5,2.7,1.5,4.5c0,0.7-0.1,1.2-0.2,1.7      h-8.7c0.1,0.6,0.3,1.1,0.7,1.5c0.4,0.4,0.8,0.7,1.2,0.8c0.4,0.1,0.8,0.2,1.2,0.2c1,0,1.9-0.3,2.5-0.9l1.9,2.2      c-1.3,1.1-2.8,1.7-4.6,1.7c-1.8,0-3.3-0.6-4.4-1.8c-1.2-1.2-1.7-2.6-1.7-4.4C327.5,67,328.1,65.2,329.3,63.8z M336.6,67.1      c-0.1-0.7-0.3-1.3-0.8-1.8c-0.5-0.4-1.1-0.7-1.8-0.7c-0.6,0-1.3,0.2-1.8,0.7s-1,1-1.2,1.8H336.6z M335.8,56.1h3.2l-3.7,4.1h-2.6      L335.8,56.1z"/>
			</g>
			<g>
				<g>
					<g>
						<g>
							<g>
								<g>
									<path class="st0" d="M81.1,4v12H56.5v8.7h23.1v12H56.5v9.6h26.2l-1.2,12H42.3V4H81.1z"/>
									<path class="st0" d="M213.7,58.3c-2.8-0.9-5.2-2.3-7.2-4.3c-2-1.9-3.4-4.4-4.4-7.4s-1.5-6.6-1.5-10.8V4h14.6v32.3           c0,3.6,0.6,6.4,1.9,8.1c1.3,1.8,3.4,2.7,6.5,2.7c3,0,5.2-0.9,6.5-2.7s1.9-4.5,1.9-8.1V4h14.6v31.8c0,4.2-0.5,7.8-1.6,10.8           s-2.6,5.5-4.6,7.4s-4.4,3.3-7.3,4.3c-2.9,0.9-6.1,1.4-9.7,1.4C219.8,59.6,216.5,59.2,213.7,58.3z"/>
									<path class="st0" d="M273.1,4c4.3,0,7.8,0.5,10.6,1.4c2.8,1,5,2.3,6.7,3.9s2.8,3.6,3.5,5.7c0.7,2.2,1,4.5,1,7           s-0.3,4.9-1,7.2s-1.9,4.2-3.5,5.9s-3.9,3-6.7,4c-2.8,1-6.2,1.4-10.4,1.4H267v17.6h-14.1V4H273.1z M273.1,29           c3,0,5.2-0.6,6.3-1.7c1.2-1.1,1.8-2.8,1.8-5.1s-0.6-4-1.8-5c-1.2-1.1-3.3-1.6-6.4-1.6h-6.2V29H273.1z"/>
									<path class="st0" d="M367.6,4v54.3H353V4H367.6z"/>
									<path class="st0" d="M387.4,4l19.5,31.1V4h13.8v54.3h-12.6l-19.7-31v31h-13.8V4H387.4z"/>
									<polygon class="st0" points="441.9,46.3 441.9,36.7 465,36.7 465,24.7 441.9,24.7 441.9,16 466.6,16 466.6,4 454.8,4            456.7,0 439.7,0 437.8,4 427.7,4 427.7,58.3 466.9,58.3 468.1,46.3          "/>
								</g>
								<g>
									<polygon class="st0" points="14.6,45.8 0,45.8 0,58.3 37.3,58.3 38.6,45.9 14.6,45.9          "/>
									<rect y="4" class="st0" width="14.6" height="33.5"/>
								</g>
							</g>
						</g>
					</g>
					<path class="st0" d="M141.7,10.8C137.1,6.3,130.2,4,121.2,4H99.9v33.6h14.6V16.3h6.9c4.3,0,7.3,1.3,9.3,3.8       c1.9,2.5,2.9,6.1,2.9,10.9s-1,8.4-3.1,11.1c-2.1,2.6-5.3,3.9-9.8,3.9h-6.2l0,0H99.9v12.3h20.5c9.1,0,16-2.4,20.9-7.2       s7.3-11.6,7.3-20.6C148.6,21.9,146.3,15.3,141.7,10.8z"/>
				</g>
				<polygon class="st0" points="182.2,4 165.7,4 146.8,58.3 161.5,58.3 164.5,47.9 176.1,47.9 172.6,36.2 168.1,36.2 173.7,17.5       173.7,17.5 173.7,17.5 173.7,17.5 173.9,18.1 182.8,47.9 182.8,47.9 186,58.3 201.1,58.3     "/>
			</g>
		</g>
		<polygon class="st0" points="313.8,50.5 313.8,36.8 331.4,36.8 331.4,50.5 346,50.5 346,4 331.4,4 331.4,23.7 313.8,23.7 313.8,4     299.2,4 299.2,50.5   "/>
	</g>
</g>
</svg>