<svg width="32" height="32" viewBox="0 0 32 32" fill="none" xmlns="http://www.w3.org/2000/svg">
<path d="M22.7644 16.7882C22.789 14.8737 23.8172 13.0622 25.4482 12.0595C24.4193 10.59 22.6958 9.65827 20.9028 9.60217C18.9903 9.40144 17.1363 10.7465 16.1618 10.7465C15.1683 10.7465 13.6679 9.6221 12.0521 9.65535C9.94607 9.72339 7.98269 10.9208 6.95804 12.762C4.75546 16.5755 6.39839 22.1799 8.50828 25.2624C9.5639 26.7718 10.7976 28.4579 12.4119 28.3981C13.9916 28.3325 14.5816 27.3908 16.4884 27.3908C18.3775 27.3908 18.931 28.3981 20.5781 28.36C22.2732 28.3325 23.3411 26.8439 24.3597 25.3202C25.1182 24.2447 25.7018 23.0561 26.089 21.7983C24.097 20.9557 22.7667 18.951 22.7644 16.7882Z" fill="#FCFCFD"/>
<path d="M19.6534 7.57498C20.5776 6.46548 21.0329 5.03941 20.9226 3.59961C19.5106 3.74791 18.2063 4.42276 17.2696 5.48969C16.3536 6.53214 15.877 7.93312 15.9671 9.31789C17.3796 9.33243 18.7682 8.67588 19.6534 7.57498Z" fill="#FCFCFD"/>
</svg>
