<svg width="451" height="451" viewBox="0 0 451 451" fill="none" xmlns="http://www.w3.org/2000/svg">
<g opacity="0.08">
<path d="M329.823 83.3326L292.323 63.6535C259.406 46.379 242.947 37.7416 225.241 37.7416C207.536 37.7416 191.077 46.379 158.159 63.6535L152.127 66.8191L319.434 162.423L394.747 124.766C382.631 111.045 363.082 100.785 329.823 83.3326Z" fill="white"/>
<path d="M408.024 149.573L333.054 187.058V243.992C333.054 251.758 326.758 258.055 318.992 258.055C311.225 258.055 304.929 251.758 304.929 243.992V201.12L239.304 233.933V410.942C252.765 407.59 268.082 399.551 292.323 386.83L329.823 367.151C370.168 345.979 390.339 335.395 401.54 316.373C412.742 297.351 412.742 273.679 412.742 226.339V224.145C412.742 188.659 412.742 166.471 408.024 149.573Z" fill="white"/>
<path d="M211.179 410.942V233.933L42.4593 149.573C37.741 166.471 37.741 188.659 37.741 224.145V226.339C37.741 273.679 37.741 297.351 48.9423 316.373C60.1433 335.395 80.3152 345.979 120.659 367.151L158.159 386.83C182.402 399.551 197.718 407.59 211.179 410.942Z" fill="white"/>
<path d="M55.7354 124.767L225.241 209.52L289.201 177.54L122.577 82.3268L120.659 83.3332C87.4015 100.786 67.8519 111.045 55.7354 124.767Z" fill="white"/>
</g>
</svg>
