<svg width="300" height="300" viewBox="0 0 300 300" fill="none" xmlns="http://www.w3.org/2000/svg">
<g opacity="0.1">
<path d="M270.112 169.52L272.977 139.079C275.227 115.171 276.352 103.217 272.262 98.2759C270.05 95.6029 267.041 93.965 263.825 93.6825C257.879 93.1603 250.411 101.661 235.476 118.663C227.752 127.456 223.891 131.853 219.582 132.534C217.196 132.91 214.764 132.523 212.559 131.414C208.581 129.411 205.929 123.977 200.624 113.106L172.664 55.8106C162.64 35.2703 157.627 25 150 25C142.372 25 137.36 35.2703 127.336 55.8108L99.3758 113.107C94.0712 123.977 91.4188 129.411 87.4407 131.414C85.2365 132.523 82.8042 132.91 80.4171 132.534C76.109 131.853 72.2471 127.456 64.5233 118.663C49.5885 101.661 42.121 93.1603 36.1748 93.6825C32.9582 93.965 29.9497 95.6029 27.7373 98.2759C23.6475 103.217 24.7725 115.171 27.0226 139.079L29.8875 169.52C34.6081 219.678 36.9685 244.756 51.7511 259.878C66.5338 275 88.6896 275 133.001 275H166.999C211.31 275 233.466 275 248.249 259.878C263.031 244.756 265.391 219.678 270.112 169.52Z" fill="#2563EB"/>
</g>
</svg>
