<svg width="39" height="78" viewBox="0 0 39 78" fill="none" xmlns="http://www.w3.org/2000/svg">
<path d="M16.0609 71.4981C13.8913 71.8786 11.4995 73.1861 10.061 74.8255C9.56974 75.3834 9.67793 75.9843 10.3037 76.3133C12.2393 77.4348 14.9761 77.8239 17.1661 77.2946C19.2626 76.9198 21.6485 75.5436 23.1572 73.9014C23.7479 73.2577 23.5637 72.5939 22.7479 72.2505C20.8415 71.3751 18.1544 71.089 16.0609 71.501V71.4981ZM7.04347 60.2913C6.49085 59.6647 5.83004 59.699 5.35637 60.4C4.09031 62.1996 3.31254 64.7746 3.40026 66.8546C3.43535 69.0891 4.49673 71.6068 6.10196 73.0888C6.63997 73.6096 7.22476 73.5466 7.63411 72.9572C8.8797 71.2692 9.61653 68.6656 9.47618 66.4798C9.35045 64.3998 8.36801 61.9135 7.04055 60.2884L7.04347 60.2913ZM25.2332 60.7233C23.2713 61.6217 21.3064 63.4957 20.3503 65.4412C20.0228 66.125 20.2655 66.6428 20.9877 66.8145C23.1601 67.4439 25.9262 67.1407 27.8764 66.0964C29.7975 65.1665 31.7536 63.2553 32.7506 61.3098C33.1044 60.5488 32.8179 59.9651 31.9904 59.8049C29.8793 59.4186 27.1601 59.7906 25.2361 60.7233H25.2332ZM13.6398 52.1715C12.9176 51.6336 12.2714 51.8167 12.0346 52.635C11.2685 54.6664 11.2101 57.3815 11.8416 59.3671C12.4937 61.5301 14.1779 63.6931 16.0667 64.7488C16.6983 65.1122 17.3064 64.9376 17.517 64.231C18.2947 62.3055 18.283 59.5989 17.6018 57.5103C16.9351 55.5276 15.365 53.3875 13.6398 52.1687V52.1715ZM38.9961 45.2563C39.0458 44.4209 38.5575 44.0089 37.6979 44.2091C35.6131 44.6898 33.3383 46.0917 31.9407 47.7225C30.5314 49.2818 29.5197 51.7395 29.4027 53.954C29.3764 54.6778 29.8296 55.0984 30.5518 54.984C32.8033 54.6635 35.195 53.3217 36.5459 51.5907C37.9406 49.9199 38.9406 47.3592 38.9961 45.2592V45.2563ZM17.7392 44.4752C16.9059 44.2778 16.3971 44.6927 16.4965 45.5481C16.593 47.6682 17.6456 50.1144 19.09 51.7967C20.4672 53.5248 22.935 54.8066 25.1806 55.0669C25.8823 55.0984 26.3531 54.6864 26.3121 54.0055C26.1689 51.7824 25.0782 49.3391 23.6134 47.8027C22.0227 46.1661 19.9848 45.0102 17.7421 44.4781L17.7392 44.4752ZM22.8707 35.4714C21.1485 34.2869 18.5345 33.6346 16.324 33.6918C15.4819 33.7519 15.1427 34.3298 15.3416 35.1023C16.0492 37.1194 17.7363 39.2766 19.5696 40.484C21.3327 41.7372 24.0666 42.4095 26.318 42.0948C26.9671 41.9861 27.315 41.4453 27.1279 40.8159C26.3502 38.6243 24.8531 36.7475 22.8707 35.4743V35.4714ZM37.1277 29.1885C36.9231 28.3502 36.3003 28.0898 35.5722 28.4961C33.6892 29.4546 31.812 31.3944 30.8852 33.2999C29.932 35.2797 29.5723 37.952 30.0577 39.9547C30.2127 40.6614 30.8004 40.9561 31.467 40.67C33.5138 39.8689 35.4728 37.9577 36.3471 35.9177C37.3032 33.8063 37.578 31.4602 37.1277 29.1914V29.1885ZM19.5433 23.7095C17.4907 23.2117 14.7948 23.4692 12.7831 24.2646C12.0083 24.6022 11.8621 25.2345 12.3358 25.8324C13.6369 27.5291 15.979 29.0054 18.2158 29.5576C20.3503 30.1555 23.1163 29.8551 25.0987 28.808C25.7215 28.4503 25.8355 27.8266 25.4086 27.2973C24.0315 25.5692 21.6982 24.1988 19.5403 23.7124H19.5433V23.7095ZM30.6776 13.0434C30.2331 12.3682 29.5226 12.3024 28.9612 12.866C27.6338 14.4568 26.5051 16.8916 26.3063 19.0031C26.0695 21.1574 26.663 23.7639 27.856 25.5091C28.2595 26.1128 28.8969 26.2273 29.394 25.738C31.0343 24.2589 32.1951 21.8241 32.3471 19.6067C32.546 17.4924 31.8822 14.8946 30.6776 13.0434ZM11.7422 14.1707C9.58144 13.9761 6.95868 14.5856 5.12537 15.6499C4.39732 16.0562 4.28913 16.7142 4.90608 17.295C6.50547 18.7084 9.03467 19.8414 11.1984 20.0731C13.4498 20.4078 16.1398 19.7498 17.9059 18.4394C18.4819 17.9817 18.5228 17.3608 18.0287 16.9116C16.2977 15.3466 14.0872 14.3824 11.7422 14.1707ZM21.2742 2.01399C20.7245 1.42747 20.0257 1.43033 19.552 2.13129C18.3591 3.9538 17.6164 6.49157 17.7392 8.53724C17.7567 10.6287 18.7801 13.1493 20.2245 14.8345C20.6924 15.358 21.3181 15.3609 21.8064 14.803C23.2303 13.0606 24.0432 10.4828 23.8356 8.30263C23.742 6.21977 22.7186 3.69916 21.2713 2.01685L21.2742 2.01399ZM2.06695 0.471869C1.18392 0.460424 0.795045 0.969696 0.964633 1.7851C1.5348 3.88799 3.00845 6.14252 4.63416 7.4815C6.35635 8.98929 8.96449 9.85906 11.1984 9.72459C11.9294 9.68167 12.2831 9.20959 12.1282 8.50577C11.637 6.46582 10.1516 4.13977 8.42064 2.84656C6.76278 1.55049 4.21603 0.566284 2.06402 0.471869H2.06695Z" fill="#2563EB"/>
</svg>
