<svg width="141" height="32" viewBox="0 0 141 32" fill="none" xmlns="http://www.w3.org/2000/svg">
<path d="M9.6341 9.36712C9.6341 8.22723 10.5507 7.30318 11.6814 7.30318C12.8121 7.30318 13.7287 8.22723 13.7287 9.36712C13.7287 10.507 12.8121 11.4311 11.6814 11.4311C10.5507 11.4311 9.6341 10.507 9.6341 9.36712Z" fill="#64DEC1"/>
<path d="M9.6341 9.36712C9.6341 8.22723 10.5507 7.30318 11.6814 7.30318C12.8121 7.30318 13.7287 8.22723 13.7287 9.36712C13.7287 10.507 12.8121 11.4311 11.6814 11.4311C10.5507 11.4311 9.6341 10.507 9.6341 9.36712Z" fill="url(#paint0_linear_852_1898)"/>
<path d="M15.3035 9.36712C15.3035 8.22723 16.2202 7.30318 17.3508 7.30318C18.4815 7.30318 19.3981 8.22723 19.3981 9.36712C19.3981 10.507 18.4815 11.4311 17.3508 11.4311C16.2202 11.4311 15.3035 10.507 15.3035 9.36712Z" fill="#64DEC1"/>
<path d="M15.3035 9.36712C15.3035 8.22723 16.2202 7.30318 17.3508 7.30318C18.4815 7.30318 19.3981 8.22723 19.3981 9.36712C19.3981 10.507 18.4815 11.4311 17.3508 11.4311C16.2202 11.4311 15.3035 10.507 15.3035 9.36712Z" fill="url(#paint1_linear_852_1898)"/>
<path d="M20.973 9.36712C20.973 8.22723 21.8896 7.30318 23.0203 7.30318C24.151 7.30318 25.0676 8.22723 25.0676 9.36712C25.0676 10.507 24.151 11.4311 23.0203 11.4311C21.8896 11.4311 20.973 10.507 20.973 9.36712Z" fill="#64DEC1"/>
<path d="M20.973 9.36712C20.973 8.22723 21.8896 7.30318 23.0203 7.30318C24.151 7.30318 25.0676 8.22723 25.0676 9.36712C25.0676 10.507 24.151 11.4311 23.0203 11.4311C21.8896 11.4311 20.973 10.507 20.973 9.36712Z" fill="url(#paint2_linear_852_1898)"/>
<path d="M9.6341 15.0826C9.6341 13.9428 10.5507 13.0187 11.6814 13.0187C12.8121 13.0187 13.7287 13.9428 13.7287 15.0826C13.7287 16.2225 12.8121 17.1466 11.6814 17.1466C10.5507 17.1466 9.6341 16.2225 9.6341 15.0826Z" fill="#64DEC1"/>
<path d="M9.6341 15.0826C9.6341 13.9428 10.5507 13.0187 11.6814 13.0187C12.8121 13.0187 13.7287 13.9428 13.7287 15.0826C13.7287 16.2225 12.8121 17.1466 11.6814 17.1466C10.5507 17.1466 9.6341 16.2225 9.6341 15.0826Z" fill="url(#paint3_linear_852_1898)"/>
<path d="M15.3035 15.0826C15.3035 13.9428 16.2202 13.0187 17.3508 13.0187C18.4815 13.0187 19.3981 13.9428 19.3981 15.0826C19.3981 16.2225 18.4815 17.1466 17.3508 17.1466C16.2202 17.1466 15.3035 16.2225 15.3035 15.0826Z" fill="#64DEC1"/>
<path d="M15.3035 15.0826C15.3035 13.9428 16.2202 13.0187 17.3508 13.0187C18.4815 13.0187 19.3981 13.9428 19.3981 15.0826C19.3981 16.2225 18.4815 17.1466 17.3508 17.1466C16.2202 17.1466 15.3035 16.2225 15.3035 15.0826Z" fill="url(#paint4_linear_852_1898)"/>
<path d="M20.973 15.0826C20.973 13.9428 21.8896 13.0187 23.0203 13.0187C24.151 13.0187 25.0676 13.9428 25.0676 15.0826C25.0676 16.2225 24.151 17.1466 23.0203 17.1466C21.8896 17.1466 20.973 16.2225 20.973 15.0826Z" fill="#64DEC1"/>
<path d="M20.973 15.0826C20.973 13.9428 21.8896 13.0187 23.0203 13.0187C24.151 13.0187 25.0676 13.9428 25.0676 15.0826C25.0676 16.2225 24.151 17.1466 23.0203 17.1466C21.8896 17.1466 20.973 16.2225 20.973 15.0826Z" fill="url(#paint5_linear_852_1898)"/>
<path d="M9.6341 20.7982C9.6341 19.6583 10.5507 18.7342 11.6814 18.7342C12.8121 18.7342 13.7287 19.6583 13.7287 20.7982C13.7287 21.9381 12.8121 22.8621 11.6814 22.8621C10.5507 22.8621 9.6341 21.9381 9.6341 20.7982Z" fill="#64DEC1"/>
<path d="M9.6341 20.7982C9.6341 19.6583 10.5507 18.7342 11.6814 18.7342C12.8121 18.7342 13.7287 19.6583 13.7287 20.7982C13.7287 21.9381 12.8121 22.8621 11.6814 22.8621C10.5507 22.8621 9.6341 21.9381 9.6341 20.7982Z" fill="url(#paint6_linear_852_1898)"/>
<path d="M15.3035 20.7982C15.3035 19.6583 16.2202 18.7342 17.3508 18.7342C18.4815 18.7342 19.3981 19.6583 19.3981 20.7982C19.3981 21.9381 18.4815 22.8621 17.3508 22.8621C16.2202 22.8621 15.3035 21.9381 15.3035 20.7982Z" fill="#64DEC1"/>
<path d="M15.3035 20.7982C15.3035 19.6583 16.2202 18.7342 17.3508 18.7342C18.4815 18.7342 19.3981 19.6583 19.3981 20.7982C19.3981 21.9381 18.4815 22.8621 17.3508 22.8621C16.2202 22.8621 15.3035 21.9381 15.3035 20.7982Z" fill="url(#paint7_linear_852_1898)"/>
<path d="M20.973 20.7982C20.973 19.6583 21.8896 18.7342 23.0203 18.7342C24.151 18.7342 25.0676 19.6583 25.0676 20.7982C25.0676 21.9381 24.151 22.8621 23.0203 22.8621C21.8896 22.8621 20.973 21.9381 20.973 20.7982Z" fill="#64DEC1"/>
<path d="M20.973 20.7982C20.973 19.6583 21.8896 18.7342 23.0203 18.7342C24.151 18.7342 25.0676 19.6583 25.0676 20.7982C25.0676 21.9381 24.151 22.8621 23.0203 22.8621C21.8896 22.8621 20.973 21.9381 20.973 20.7982Z" fill="url(#paint8_linear_852_1898)"/>
<path d="M2.71473 17.4641C2.12257 17.4641 1.64254 17.9481 1.64254 18.545V26.3509C1.64245 27.7695 1.20409 29.1021 0.870442 30.1164C0.179129 32.2179 -0.0625929 32.9527 4.97561 30.2544C5.2005 30.1339 5.46024 30.0653 5.71489 30.0653H14.8808C15.4729 30.0653 15.953 29.5813 15.953 28.9844V27.4318C15.953 26.8348 15.4729 26.3509 14.8808 26.3509H6.87093C6.01823 26.3509 5.32697 25.654 5.32697 24.7944V18.545C5.32697 17.9481 4.84693 17.4641 4.25478 17.4641H2.71473Z" fill="#64DEC1"/>
<path d="M2.71473 17.4641C2.12257 17.4641 1.64254 17.9481 1.64254 18.545V26.3509C1.64245 27.7695 1.20409 29.1021 0.870442 30.1164C0.179129 32.2179 -0.0625929 32.9527 4.97561 30.2544C5.2005 30.1339 5.46024 30.0653 5.71489 30.0653H14.8808C15.4729 30.0653 15.953 29.5813 15.953 28.9844V27.4318C15.953 26.8348 15.4729 26.3509 14.8808 26.3509H6.87093C6.01823 26.3509 5.32697 25.654 5.32697 24.7944V18.545C5.32697 17.9481 4.84693 17.4641 4.25478 17.4641H2.71473Z" fill="url(#paint9_linear_852_1898)"/>
<path d="M15.4404 1.08091C15.4404 0.48394 14.9603 0 14.3682 0H4.81437C2.78793 0 1.12994 1.67148 1.12994 3.71439V13.7343C1.12994 14.3312 1.60998 14.8152 2.20213 14.8152H3.74218C4.33433 14.8152 4.81437 14.3312 4.81437 13.7343V5.2709C4.81437 4.41127 5.50563 3.71439 6.35833 3.71439H14.3682C14.9603 3.71439 15.4404 3.23045 15.4404 2.63349V1.08091Z" fill="#64DEC1"/>
<path d="M15.4404 1.08091C15.4404 0.48394 14.9603 0 14.3682 0H4.81437C2.78793 0 1.12994 1.67148 1.12994 3.71439V13.7343C1.12994 14.3312 1.60998 14.8152 2.20213 14.8152H3.74218C4.33433 14.8152 4.81437 14.3312 4.81437 13.7343V5.2709C4.81437 4.41127 5.50563 3.71439 6.35833 3.71439H14.3682C14.9603 3.71439 15.4404 3.23045 15.4404 2.63349V1.08091Z" fill="url(#paint10_linear_852_1898)"/>
<path d="M18.8211 1.08091C18.8211 0.48394 19.3011 0 19.8933 0H29.4471C31.4735 0 33.1315 1.67148 33.1315 3.71439V13.7343C33.1315 14.3312 32.6515 14.8152 32.0593 14.8152H30.5193C29.9271 14.8152 29.4471 14.3312 29.4471 13.7343V5.2709C29.4471 4.41127 28.7558 3.71439 27.9031 3.71439H19.8933C19.3011 3.71439 18.8211 3.23045 18.8211 2.63349V1.08091Z" fill="#64DEC1"/>
<path d="M18.8211 1.08091C18.8211 0.48394 19.3011 0 19.8933 0H29.4471C31.4735 0 33.1315 1.67148 33.1315 3.71439V13.7343C33.1315 14.3312 32.6515 14.8152 32.0593 14.8152H30.5193C29.9271 14.8152 29.4471 14.3312 29.4471 13.7343V5.2709C29.4471 4.41127 28.7558 3.71439 27.9031 3.71439H19.8933C19.3011 3.71439 18.8211 3.23045 18.8211 2.63349V1.08091Z" fill="url(#paint11_linear_852_1898)"/>
<path d="M32.0945 17.4246C32.6866 17.4246 33.1667 17.9085 33.1667 18.5055V26.2454C33.1667 28.2883 31.5087 29.9597 29.4822 29.9597H19.8581C19.2659 29.9597 18.7859 29.4758 18.7859 28.8788V27.3263C18.7859 26.7293 19.2659 26.2454 19.8581 26.2454H27.9383C28.791 26.2454 29.4822 25.5485 29.4822 24.6889V18.5055C29.4822 17.9085 29.9623 17.4246 30.5544 17.4246H32.0945Z" fill="#64DEC1"/>
<path d="M32.0945 17.4246C32.6866 17.4246 33.1667 17.9085 33.1667 18.5055V26.2454C33.1667 28.2883 31.5087 29.9597 29.4822 29.9597H19.8581C19.2659 29.9597 18.7859 29.4758 18.7859 28.8788V27.3263C18.7859 26.7293 19.2659 26.2454 19.8581 26.2454H27.9383C28.791 26.2454 29.4822 25.5485 29.4822 24.6889V18.5055C29.4822 17.9085 29.9623 17.4246 30.5544 17.4246H32.0945Z" fill="url(#paint12_linear_852_1898)"/>
<path d="M128.76 30.4941C127.288 30.4941 126.017 30.2554 124.944 29.7779C123.872 29.3004 123.049 28.6219 122.476 27.7423C121.902 26.8376 121.615 25.7695 121.615 24.5381C121.615 23.3821 121.877 22.3643 122.401 21.4847C122.924 20.58 123.722 19.8261 124.795 19.223C125.892 18.6198 127.251 18.1926 128.872 17.9413L135.119 16.9235V21.0701L129.882 22.0125C129.084 22.1633 128.473 22.4271 128.049 22.8041C127.625 23.1559 127.413 23.6711 127.413 24.3496C127.413 24.9779 127.65 25.468 128.124 25.8198C128.598 26.1716 129.184 26.3475 129.882 26.3475C130.804 26.3475 131.615 26.1465 132.313 25.7444C133.011 25.3423 133.548 24.802 133.922 24.1235C134.321 23.4198 134.52 22.6533 134.52 21.824V16.4712C134.52 15.6921 134.208 15.0387 133.585 14.511C132.986 13.9832 132.164 13.7194 131.116 13.7194C130.119 13.7194 129.233 13.9958 128.46 14.5487C127.712 15.1016 127.164 15.8303 126.815 16.735L122.326 14.5864C122.725 13.4304 123.361 12.4377 124.234 11.6084C125.106 10.7791 126.154 10.1382 127.376 9.68589C128.598 9.23354 129.932 9.00737 131.378 9.00737C133.099 9.00737 134.62 9.3215 135.941 9.94977C137.263 10.578 138.285 11.4576 139.009 12.5885C139.757 13.6942 140.131 14.9885 140.131 16.4712V30.0417H134.894V26.7245L136.166 26.4983C135.567 27.403 134.907 28.1569 134.183 28.7601C133.46 29.3381 132.65 29.7653 131.752 30.0417C130.854 30.3433 129.857 30.4941 128.76 30.4941Z" fill="#192344"/>
<path d="M113.844 30.0417V1.50586H119.455V30.0417H113.844Z" fill="#192344"/>
<path d="M99.48 30.4941C98.0087 30.4941 96.7369 30.2554 95.6646 29.7779C94.5924 29.3004 93.7694 28.6219 93.1959 27.7423C92.6224 26.8376 92.3356 25.7695 92.3356 24.5381C92.3356 23.3821 92.5974 22.3643 93.1211 21.4847C93.6448 20.58 94.4427 19.8261 95.515 19.223C96.6122 18.6198 97.9713 18.1926 99.5922 17.9413L105.839 16.9235V21.0701L100.602 22.0125C99.8041 22.1633 99.1932 22.4271 98.7693 22.8041C98.3453 23.1559 98.1334 23.6711 98.1334 24.3496C98.1334 24.9779 98.3703 25.468 98.8441 25.8198C99.3179 26.1716 99.9039 26.3475 100.602 26.3475C101.525 26.3475 102.335 26.1465 103.033 25.7444C103.732 25.3423 104.268 24.802 104.642 24.1235C105.041 23.4198 105.24 22.6533 105.24 21.824V16.4712C105.24 15.6921 104.929 15.0387 104.305 14.511C103.707 13.9832 102.884 13.7194 101.836 13.7194C100.839 13.7194 99.9538 13.9958 99.1807 14.5487C98.4326 15.1016 97.884 15.8303 97.5349 16.735L93.0463 14.5864C93.4453 13.4304 94.0812 12.4377 94.9539 11.6084C95.8267 10.7791 96.8741 10.1382 98.096 9.68589C99.3179 9.23354 100.652 9.00737 102.098 9.00737C103.819 9.00737 105.34 9.3215 106.662 9.94977C107.983 10.578 109.006 11.4576 109.729 12.5885C110.477 13.6942 110.851 14.9885 110.851 16.4712V30.0417H105.614V26.7245L106.886 26.4983C106.288 27.403 105.627 28.1569 104.904 28.7601C104.181 29.3381 103.37 29.7653 102.472 30.0417C101.575 30.3433 100.577 30.4941 99.48 30.4941Z" fill="#192344"/>
<path d="M79.6365 30.0417L71.5944 9.45972H77.6541L83.2274 25.0282H80.9083L86.4817 9.45972H92.5413L84.4992 30.0417H79.6365Z" fill="#192344"/>
<path d="M64.6459 30.0417V9.45972H70.2566V30.0417H64.6459ZM64.6459 7.61261V1.95821H70.2566V7.61261H64.6459Z" fill="#192344"/>
<path d="M40.5 30.0417V1.95821H46.2978V16.0188L44.6894 15.4534L55.8361 1.95821H63.0927L52.0582 15.378L52.3948 11.2314L63.3171 30.0417H56.5468L49.7391 18.1675L46.2978 22.3518V30.0417H40.5Z" fill="#192344"/>
<defs>
<linearGradient id="paint0_linear_852_1898" x1="0.5" y1="0" x2="30.0157" y2="31.7711" gradientUnits="userSpaceOnUse">
<stop stop-color="#64DEC1"/>
<stop offset="1" stop-color="#195AFE"/>
</linearGradient>
<linearGradient id="paint1_linear_852_1898" x1="0.5" y1="0" x2="30.0157" y2="31.7711" gradientUnits="userSpaceOnUse">
<stop stop-color="#64DEC1"/>
<stop offset="1" stop-color="#195AFE"/>
</linearGradient>
<linearGradient id="paint2_linear_852_1898" x1="0.5" y1="0" x2="30.0157" y2="31.7711" gradientUnits="userSpaceOnUse">
<stop stop-color="#64DEC1"/>
<stop offset="1" stop-color="#195AFE"/>
</linearGradient>
<linearGradient id="paint3_linear_852_1898" x1="0.5" y1="0" x2="30.0157" y2="31.7711" gradientUnits="userSpaceOnUse">
<stop stop-color="#64DEC1"/>
<stop offset="1" stop-color="#195AFE"/>
</linearGradient>
<linearGradient id="paint4_linear_852_1898" x1="0.5" y1="0" x2="30.0157" y2="31.7711" gradientUnits="userSpaceOnUse">
<stop stop-color="#64DEC1"/>
<stop offset="1" stop-color="#195AFE"/>
</linearGradient>
<linearGradient id="paint5_linear_852_1898" x1="0.5" y1="0" x2="30.0157" y2="31.7711" gradientUnits="userSpaceOnUse">
<stop stop-color="#64DEC1"/>
<stop offset="1" stop-color="#195AFE"/>
</linearGradient>
<linearGradient id="paint6_linear_852_1898" x1="0.5" y1="0" x2="30.0157" y2="31.7711" gradientUnits="userSpaceOnUse">
<stop stop-color="#64DEC1"/>
<stop offset="1" stop-color="#195AFE"/>
</linearGradient>
<linearGradient id="paint7_linear_852_1898" x1="0.5" y1="0" x2="30.0157" y2="31.7711" gradientUnits="userSpaceOnUse">
<stop stop-color="#64DEC1"/>
<stop offset="1" stop-color="#195AFE"/>
</linearGradient>
<linearGradient id="paint8_linear_852_1898" x1="0.5" y1="0" x2="30.0157" y2="31.7711" gradientUnits="userSpaceOnUse">
<stop stop-color="#64DEC1"/>
<stop offset="1" stop-color="#195AFE"/>
</linearGradient>
<linearGradient id="paint9_linear_852_1898" x1="0.5" y1="0" x2="30.0157" y2="31.7711" gradientUnits="userSpaceOnUse">
<stop stop-color="#64DEC1"/>
<stop offset="1" stop-color="#195AFE"/>
</linearGradient>
<linearGradient id="paint10_linear_852_1898" x1="0.5" y1="0" x2="30.0157" y2="31.7711" gradientUnits="userSpaceOnUse">
<stop stop-color="#64DEC1"/>
<stop offset="1" stop-color="#195AFE"/>
</linearGradient>
<linearGradient id="paint11_linear_852_1898" x1="0.5" y1="0" x2="30.0157" y2="31.7711" gradientUnits="userSpaceOnUse">
<stop stop-color="#64DEC1"/>
<stop offset="1" stop-color="#195AFE"/>
</linearGradient>
<linearGradient id="paint12_linear_852_1898" x1="0.5" y1="0" x2="30.0157" y2="31.7711" gradientUnits="userSpaceOnUse">
<stop stop-color="#64DEC1"/>
<stop offset="1" stop-color="#195AFE"/>
</linearGradient>
</defs>
</svg>
