<svg width="35" height="27" viewBox="0 0 35 27" fill="none" xmlns="http://www.w3.org/2000/svg">
<path d="M19.795 26.7946V18.7375C19.795 13.6784 20.9817 9.55612 23.3551 6.37075C25.791 3.12291 29.3823 0.999331 34.1292 0V6.08969C32.0056 6.58935 30.3192 7.52623 29.07 8.90031C27.8209 10.2119 27.0089 11.8046 26.6342 13.6784H32.2554V26.7946H19.795ZM0.870117 26.7946V18.7375C0.870117 13.6784 2.05683 9.55612 4.43024 6.37075C6.86612 3.12291 10.4262 0.999331 15.1106 0V6.08969C12.987 6.58935 11.3007 7.52623 10.0515 8.90031C8.80232 10.2119 7.99037 11.8046 7.61562 13.6784H13.2369V26.7946H0.870117Z" fill="#2563EB"/>
</svg>
