<svg width="451" height="451" viewBox="0 0 451 451" fill="none" xmlns="http://www.w3.org/2000/svg">
<g opacity="0.1">
<path fill-rule="evenodd" clip-rule="evenodd" d="M63.8285 95.8677C56.75 105.953 56.75 135.93 56.75 195.886V225.411C56.75 331.124 136.23 382.426 186.098 404.209C199.625 410.118 206.388 413.073 225.5 413.073C244.612 413.073 251.375 410.118 264.901 404.209C314.769 382.426 394.25 331.124 394.25 225.411V195.886C394.25 135.93 394.25 105.953 387.172 95.8677C380.094 85.7826 351.907 76.1343 295.533 56.8373L284.793 53.161C255.406 43.102 240.714 38.0725 225.5 38.0725C210.286 38.0725 195.594 43.102 166.207 53.161L155.467 56.8373C99.0935 76.1343 70.9068 85.7826 63.8285 95.8677ZM282.866 197.438C288.037 191.644 287.534 182.755 281.741 177.583C275.947 172.41 267.057 172.913 261.884 178.707L205.411 241.958L189.116 223.707C183.942 217.913 175.053 217.411 169.259 222.582C163.466 227.755 162.963 236.644 168.135 242.438L194.921 272.438C197.589 275.427 201.404 277.135 205.411 277.135C209.416 277.135 213.232 275.427 215.9 272.438L282.866 197.438Z" fill="#2563EB"/>
</g>
</svg>
