<svg width="451" height="451" viewBox="0 0 451 451" fill="none" xmlns="http://www.w3.org/2000/svg">
<g opacity="0.08">
<path d="M239.678 37.5724C239.678 29.806 233.382 23.5099 225.616 23.5099C217.85 23.5099 211.553 29.806 211.553 37.5724V93.8224C211.553 101.589 217.85 107.885 225.616 107.885C233.382 107.885 239.678 101.589 239.678 93.8224V37.5724Z" fill="white"/>
<path fill-rule="evenodd" clip-rule="evenodd" d="M38.1156 398.51H75.6156V300.072C75.6156 217.229 142.773 150.072 225.616 150.072C308.459 150.072 375.616 217.229 375.616 300.072V398.51H413.116C420.882 398.51 427.178 404.806 427.178 412.572C427.178 420.339 420.882 426.635 413.116 426.635H38.1156C30.3492 426.635 24.0531 420.339 24.0531 412.572C24.0531 404.806 30.3492 398.51 38.1156 398.51ZM239.678 352.559C248.086 347.697 253.741 338.607 253.741 328.197C253.741 312.665 241.148 300.072 225.616 300.072C210.083 300.072 197.491 312.665 197.491 328.197C197.491 338.607 203.146 347.697 211.553 352.559V398.51H239.678V352.559ZM255.527 210.421C258.441 203.221 266.641 199.749 273.839 202.662C296.17 211.702 313.982 229.514 323.022 251.844C325.936 259.044 322.461 267.241 315.263 270.155C308.063 273.071 299.866 269.596 296.952 262.398C290.77 247.126 278.556 234.914 263.286 228.732C256.088 225.819 252.614 217.619 255.527 210.421Z" fill="white"/>
<path d="M404.309 102.629C409.8 108.121 409.8 117.025 404.309 122.516L376.184 150.641C370.692 156.133 361.789 156.133 356.297 150.641C350.805 145.15 350.805 136.246 356.297 130.754L384.422 102.629C389.914 97.1373 398.817 97.1373 404.309 102.629Z" fill="white"/>
<path d="M66.8095 102.629C61.3179 97.1373 52.4139 97.1373 46.9222 102.629C41.4305 108.121 41.4305 117.025 46.9222 122.516L75.0472 150.641C80.5389 156.133 89.4429 156.133 94.9345 150.641C100.426 145.15 100.426 136.246 94.9345 130.754L66.8095 102.629Z" fill="white"/>
</g>
</svg>
